<svg width="500" height="500" viewBox="0 0 500 500" fill="none" xmlns="http://www.w3.org/2000/svg">
<rect x="3" y="3" width="494" height="494" rx="247" stroke="#00F3FF" stroke-width="6"/>
<mask id="path-2-outside-1_2051_2876" maskUnits="userSpaceOnUse" x="49.2041" y="145.004" width="381" height="210" fill="black">
<rect fill="white" x="49.2041" y="145.004" width="381" height="210"/>
<path d="M414.72 151.524C415.292 151.809 415.292 151.809 415.876 152.101C416.898 152.652 416.898 152.652 418.341 153.622C418.341 153.899 418.341 154.176 418.341 154.462C418.747 154.623 418.747 154.623 419.161 154.788C422.539 156.539 424.131 160.725 425.17 163.982C425.674 165.927 425.738 167.813 425.723 169.807C425.721 170.175 425.719 170.543 425.717 170.922C425.521 181.121 420.63 191.121 416.337 200.349C415.158 202.898 414.021 205.463 412.881 208.027C412.199 209.56 411.516 211.093 410.832 212.626C410.435 213.518 410.039 214.411 409.644 215.303C407.851 219.333 405.932 223.311 404.021 227.293C403.573 228.226 403.126 229.16 402.68 230.094C402.478 230.513 402.478 230.513 402.273 230.939C401.608 232.331 400.985 233.728 400.414 235.155C399.78 236.733 399.045 238.224 398.257 239.741C397.242 241.718 396.309 243.694 395.484 245.748C394.702 247.693 393.821 249.57 392.854 251.44C391.618 253.834 390.527 256.26 389.488 258.732C387.932 262.423 386.193 266.02 384.371 269.604C383.093 272.135 381.972 274.69 380.908 277.304C379.917 279.658 378.787 281.953 377.664 284.256C376.11 287.464 374.578 290.672 373.166 293.935C372.049 296.503 370.792 298.971 369.425 301.434C368.775 302.613 368.167 303.805 367.572 305.008C364.862 310.471 361.757 315.641 358.421 320.796C357.771 321.803 357.13 322.814 356.494 323.828C350.154 333.897 340.258 344.331 327.825 347.776C318.376 349.957 308.296 348.233 299.999 343.626C285.683 334.659 277.47 321.132 269.531 307.228C267.652 303.949 265.622 300.759 263.553 297.581C263.204 297.027 263.204 297.027 262.848 296.462C260.203 292.493 256.567 288.408 251.786 286.669C249.186 286.358 247.638 286.648 245.485 288.035C240.815 291.674 238.242 296.196 235.593 301.165C230.101 311.432 224.103 321.365 216.582 330.472C216.073 331.105 215.598 331.76 215.126 332.417C214.827 332.417 214.528 332.417 214.22 332.417C214.066 332.768 214.066 332.768 213.909 333.125C213.314 334.097 212.643 334.784 211.773 335.55C211.233 336.033 210.707 336.531 210.189 337.036C202.073 344.876 191.275 349.912 179.455 350.228C167.797 350.106 157.42 344.873 148.481 338.35C147.24 337.434 147.24 337.434 145.879 336.614C145.879 336.337 145.879 336.06 145.879 335.775C145.609 335.661 145.34 335.547 145.062 335.43C144.08 334.941 143.435 334.456 142.649 333.73C142.26 333.372 142.26 333.372 141.863 333.007C141.592 332.752 141.321 332.496 141.041 332.233C140.761 331.971 140.48 331.708 140.19 331.437C137.035 328.452 134.245 325.237 131.571 321.874C131.153 321.349 130.73 320.827 130.301 320.31C128.271 317.851 126.433 315.282 124.607 312.691C124.329 312.299 124.052 311.908 123.767 311.504C122.206 309.267 120.775 306.995 119.419 304.646C118.014 302.247 116.502 299.901 115 297.554C114.139 296.192 113.418 294.821 112.768 293.363C111.729 291.135 110.535 288.961 109.19 286.879C108.535 285.839 108.051 284.811 107.601 283.682C106.157 280.29 104.315 277.067 102.543 273.816C102.189 273.164 101.835 272.512 101.482 271.86C100.782 270.569 100.081 269.278 99.3791 267.988C98.5521 266.466 97.7301 264.942 96.9102 263.418C95.3253 260.47 93.7209 257.533 92.0764 254.614C91.7328 254.004 91.7328 254.004 91.3822 253.381C89.398 249.871 87.3363 246.405 85.2437 242.95C83.5953 240.224 82.0084 237.471 80.447 234.702C78.6635 231.541 76.8377 228.419 74.9096 225.331C73.3864 222.872 71.9452 220.371 70.4884 217.878C69.2337 215.736 67.9517 213.616 66.6179 211.515C64.6938 208.424 63.0836 205.205 61.4502 201.975C60.4589 200.017 59.4343 198.076 58.3863 196.144C58.239 195.871 58.0916 195.599 57.9397 195.318C57.3079 194.152 56.6701 192.99 56.0226 191.832C55.8225 191.472 55.6224 191.111 55.4162 190.74C55.2493 190.445 55.0825 190.15 54.9106 189.846C53.0027 185.794 52.6732 180.71 54.0301 176.458C55.4378 173.702 57.4248 171.187 59.8856 169.151C60.1843 169.151 60.483 169.151 60.7908 169.151C60.7908 168.874 60.7908 168.597 60.7908 168.312C69.795 160.568 82.8272 157.918 94.7265 158.131C99.4965 158.3 104.328 159.104 108.766 160.757C109.171 160.898 109.576 161.04 109.993 161.185C117.15 163.789 123.429 167.669 129.046 172.517C130.014 173.36 130.014 173.36 131.072 174.035C131.328 174.224 131.584 174.413 131.848 174.607C131.848 174.885 131.848 175.162 131.848 175.447C132.147 175.447 132.446 175.447 132.753 175.447C133.344 175.975 133.344 175.975 134.055 176.758C135.05 177.852 136.048 178.935 137.083 179.996C143.556 186.683 148.772 194.253 153.414 202.115C154.005 203.113 154.604 204.106 155.206 205.097C159.112 211.535 162.785 218.053 166.192 224.73C168.767 229.754 171.466 234.741 174.624 239.475C175.31 240.52 175.963 241.581 176.612 242.646C180.854 249.607 185.939 257.881 194.278 261.172C196.493 261.675 197.93 261.948 200.013 260.883C206.817 256.561 210.183 249.769 213.731 243.103C215.628 239.54 217.634 236.032 219.651 232.527C219.871 232.144 220.091 231.762 220.317 231.367C223.067 226.589 225.855 221.89 229.156 217.418C229.441 217.03 229.727 216.642 230.02 216.242C235.9 208.506 243.091 201.072 253.544 199.089C261.838 197.89 269.347 199.643 276.226 203.987C277.501 204.956 278.71 205.953 279.896 207.015C280.699 207.79 280.699 207.79 281.657 208.184C281.657 208.461 281.657 208.738 281.657 209.023C281.956 209.023 282.254 209.023 282.562 209.023C285.749 211.651 288.037 215.334 290.256 218.677C290.435 218.946 290.614 219.215 290.799 219.493C294.709 225.527 297.184 232.199 299.803 238.777C299.923 239.076 300.042 239.375 300.165 239.683C300.872 241.477 301.473 243.277 302.024 245.118C306.135 258.54 306.135 258.54 315.856 268.386C318.448 268.94 320.085 268.763 322.39 267.546C326.268 265.213 329.365 261.981 331.442 258.129C331.741 258.129 332.04 258.129 332.348 258.129C332.441 257.791 332.534 257.454 332.63 257.106C333.172 255.805 333.708 254.93 334.554 253.801C335.702 252.26 336.552 250.745 337.331 249.022C337.799 248.013 338.317 247.041 338.854 246.063C344.389 235.89 348.949 225.174 353.167 214.48C353.995 212.405 354.851 210.342 355.741 208.289C355.979 207.741 356.216 207.193 356.453 206.645C356.58 206.353 356.706 206.062 356.836 205.762C357.268 204.762 357.697 203.76 358.126 202.759C359.69 199.109 361.277 195.475 362.965 191.873C363.536 190.644 364.081 189.409 364.623 188.169C368.011 180.643 372.058 173.356 376.582 166.363C376.758 166.09 376.934 165.817 377.115 165.537C377.277 165.344 377.44 165.152 377.607 164.954C377.906 164.954 378.204 164.954 378.512 164.954C378.643 164.634 378.774 164.314 378.908 163.984C379.417 162.856 379.417 162.856 380.323 161.597C380.621 161.597 380.92 161.597 381.228 161.597C381.337 161.291 381.446 160.986 381.558 160.672C383.875 155.939 390.75 152.044 395.755 150.12C401.647 148.235 409.294 148.76 414.72 151.524Z"/>
</mask>
<path d="M414.72 151.524C415.292 151.809 415.292 151.809 415.876 152.101C416.898 152.652 416.898 152.652 418.341 153.622C418.341 153.899 418.341 154.176 418.341 154.462C418.747 154.623 418.747 154.623 419.161 154.788C422.539 156.539 424.131 160.725 425.17 163.982C425.674 165.927 425.738 167.813 425.723 169.807C425.721 170.175 425.719 170.543 425.717 170.922C425.521 181.121 420.63 191.121 416.337 200.349C415.158 202.898 414.021 205.463 412.881 208.027C412.199 209.56 411.516 211.093 410.832 212.626C410.435 213.518 410.039 214.411 409.644 215.303C407.851 219.333 405.932 223.311 404.021 227.293C403.573 228.226 403.126 229.16 402.68 230.094C402.478 230.513 402.478 230.513 402.273 230.939C401.608 232.331 400.985 233.728 400.414 235.155C399.78 236.733 399.045 238.224 398.257 239.741C397.242 241.718 396.309 243.694 395.484 245.748C394.702 247.693 393.821 249.57 392.854 251.44C391.618 253.834 390.527 256.26 389.488 258.732C387.932 262.423 386.193 266.02 384.371 269.604C383.093 272.135 381.972 274.69 380.908 277.304C379.917 279.658 378.787 281.953 377.664 284.256C376.11 287.464 374.578 290.672 373.166 293.935C372.049 296.503 370.792 298.971 369.425 301.434C368.775 302.613 368.167 303.805 367.572 305.008C364.862 310.471 361.757 315.641 358.421 320.796C357.771 321.803 357.13 322.814 356.494 323.828C350.154 333.897 340.258 344.331 327.825 347.776C318.376 349.957 308.296 348.233 299.999 343.626C285.683 334.659 277.47 321.132 269.531 307.228C267.652 303.949 265.622 300.759 263.553 297.581C263.204 297.027 263.204 297.027 262.848 296.462C260.203 292.493 256.567 288.408 251.786 286.669C249.186 286.358 247.638 286.648 245.485 288.035C240.815 291.674 238.242 296.196 235.593 301.165C230.101 311.432 224.103 321.365 216.582 330.472C216.073 331.105 215.598 331.76 215.126 332.417C214.827 332.417 214.528 332.417 214.22 332.417C214.066 332.768 214.066 332.768 213.909 333.125C213.314 334.097 212.643 334.784 211.773 335.55C211.233 336.033 210.707 336.531 210.189 337.036C202.073 344.876 191.275 349.912 179.455 350.228C167.797 350.106 157.42 344.873 148.481 338.35C147.24 337.434 147.24 337.434 145.879 336.614C145.879 336.337 145.879 336.06 145.879 335.775C145.609 335.661 145.34 335.547 145.062 335.43C144.08 334.941 143.435 334.456 142.649 333.73C142.26 333.372 142.26 333.372 141.863 333.007C141.592 332.752 141.321 332.496 141.041 332.233C140.761 331.971 140.48 331.708 140.19 331.437C137.035 328.452 134.245 325.237 131.571 321.874C131.153 321.349 130.73 320.827 130.301 320.31C128.271 317.851 126.433 315.282 124.607 312.691C124.329 312.299 124.052 311.908 123.767 311.504C122.206 309.267 120.775 306.995 119.419 304.646C118.014 302.247 116.502 299.901 115 297.554C114.139 296.192 113.418 294.821 112.768 293.363C111.729 291.135 110.535 288.961 109.19 286.879C108.535 285.839 108.051 284.811 107.601 283.682C106.157 280.29 104.315 277.067 102.543 273.816C102.189 273.164 101.835 272.512 101.482 271.86C100.782 270.569 100.081 269.278 99.3791 267.988C98.5521 266.466 97.7301 264.942 96.9102 263.418C95.3253 260.47 93.7209 257.533 92.0764 254.614C91.7328 254.004 91.7328 254.004 91.3822 253.381C89.398 249.871 87.3363 246.405 85.2437 242.95C83.5953 240.224 82.0084 237.471 80.447 234.702C78.6635 231.541 76.8377 228.419 74.9096 225.331C73.3864 222.872 71.9452 220.371 70.4884 217.878C69.2337 215.736 67.9517 213.616 66.6179 211.515C64.6938 208.424 63.0836 205.205 61.4502 201.975C60.4589 200.017 59.4343 198.076 58.3863 196.144C58.239 195.871 58.0916 195.599 57.9397 195.318C57.3079 194.152 56.6701 192.99 56.0226 191.832C55.8225 191.472 55.6224 191.111 55.4162 190.74C55.2493 190.445 55.0825 190.15 54.9106 189.846C53.0027 185.794 52.6732 180.71 54.0301 176.458C55.4378 173.702 57.4248 171.187 59.8856 169.151C60.1843 169.151 60.483 169.151 60.7908 169.151C60.7908 168.874 60.7908 168.597 60.7908 168.312C69.795 160.568 82.8272 157.918 94.7265 158.131C99.4965 158.3 104.328 159.104 108.766 160.757C109.171 160.898 109.576 161.04 109.993 161.185C117.15 163.789 123.429 167.669 129.046 172.517C130.014 173.36 130.014 173.36 131.072 174.035C131.328 174.224 131.584 174.413 131.848 174.607C131.848 174.885 131.848 175.162 131.848 175.447C132.147 175.447 132.446 175.447 132.753 175.447C133.344 175.975 133.344 175.975 134.055 176.758C135.05 177.852 136.048 178.935 137.083 179.996C143.556 186.683 148.772 194.253 153.414 202.115C154.005 203.113 154.604 204.106 155.206 205.097C159.112 211.535 162.785 218.053 166.192 224.73C168.767 229.754 171.466 234.741 174.624 239.475C175.31 240.52 175.963 241.581 176.612 242.646C180.854 249.607 185.939 257.881 194.278 261.172C196.493 261.675 197.93 261.948 200.013 260.883C206.817 256.561 210.183 249.769 213.731 243.103C215.628 239.54 217.634 236.032 219.651 232.527C219.871 232.144 220.091 231.762 220.317 231.367C223.067 226.589 225.855 221.89 229.156 217.418C229.441 217.03 229.727 216.642 230.02 216.242C235.9 208.506 243.091 201.072 253.544 199.089C261.838 197.89 269.347 199.643 276.226 203.987C277.501 204.956 278.71 205.953 279.896 207.015C280.699 207.79 280.699 207.79 281.657 208.184C281.657 208.461 281.657 208.738 281.657 209.023C281.956 209.023 282.254 209.023 282.562 209.023C285.749 211.651 288.037 215.334 290.256 218.677C290.435 218.946 290.614 219.215 290.799 219.493C294.709 225.527 297.184 232.199 299.803 238.777C299.923 239.076 300.042 239.375 300.165 239.683C300.872 241.477 301.473 243.277 302.024 245.118C306.135 258.54 306.135 258.54 315.856 268.386C318.448 268.94 320.085 268.763 322.39 267.546C326.268 265.213 329.365 261.981 331.442 258.129C331.741 258.129 332.04 258.129 332.348 258.129C332.441 257.791 332.534 257.454 332.63 257.106C333.172 255.805 333.708 254.93 334.554 253.801C335.702 252.26 336.552 250.745 337.331 249.022C337.799 248.013 338.317 247.041 338.854 246.063C344.389 235.89 348.949 225.174 353.167 214.48C353.995 212.405 354.851 210.342 355.741 208.289C355.979 207.741 356.216 207.193 356.453 206.645C356.58 206.353 356.706 206.062 356.836 205.762C357.268 204.762 357.697 203.76 358.126 202.759C359.69 199.109 361.277 195.475 362.965 191.873C363.536 190.644 364.081 189.409 364.623 188.169C368.011 180.643 372.058 173.356 376.582 166.363C376.758 166.09 376.934 165.817 377.115 165.537C377.277 165.344 377.44 165.152 377.607 164.954C377.906 164.954 378.204 164.954 378.512 164.954C378.643 164.634 378.774 164.314 378.908 163.984C379.417 162.856 379.417 162.856 380.323 161.597C380.621 161.597 380.92 161.597 381.228 161.597C381.337 161.291 381.446 160.986 381.558 160.672C383.875 155.939 390.75 152.044 395.755 150.12C401.647 148.235 409.294 148.76 414.72 151.524Z" fill="url(#paint0_linear_2051_2876)"/>
<path d="M414.72 151.524C415.292 151.809 415.292 151.809 415.876 152.101C416.898 152.652 416.898 152.652 418.341 153.622C418.341 153.899 418.341 154.176 418.341 154.462C418.747 154.623 418.747 154.623 419.161 154.788C422.539 156.539 424.131 160.725 425.17 163.982C425.674 165.927 425.738 167.813 425.723 169.807C425.721 170.175 425.719 170.543 425.717 170.922C425.521 181.121 420.63 191.121 416.337 200.349C415.158 202.898 414.021 205.463 412.881 208.027C412.199 209.56 411.516 211.093 410.832 212.626C410.435 213.518 410.039 214.411 409.644 215.303C407.851 219.333 405.932 223.311 404.021 227.293C403.573 228.226 403.126 229.16 402.68 230.094C402.478 230.513 402.478 230.513 402.273 230.939C401.608 232.331 400.985 233.728 400.414 235.155C399.78 236.733 399.045 238.224 398.257 239.741C397.242 241.718 396.309 243.694 395.484 245.748C394.702 247.693 393.821 249.57 392.854 251.44C391.618 253.834 390.527 256.26 389.488 258.732C387.932 262.423 386.193 266.02 384.371 269.604C383.093 272.135 381.972 274.69 380.908 277.304C379.917 279.658 378.787 281.953 377.664 284.256C376.11 287.464 374.578 290.672 373.166 293.935C372.049 296.503 370.792 298.971 369.425 301.434C368.775 302.613 368.167 303.805 367.572 305.008C364.862 310.471 361.757 315.641 358.421 320.796C357.771 321.803 357.13 322.814 356.494 323.828C350.154 333.897 340.258 344.331 327.825 347.776C318.376 349.957 308.296 348.233 299.999 343.626C285.683 334.659 277.47 321.132 269.531 307.228C267.652 303.949 265.622 300.759 263.553 297.581C263.204 297.027 263.204 297.027 262.848 296.462C260.203 292.493 256.567 288.408 251.786 286.669C249.186 286.358 247.638 286.648 245.485 288.035C240.815 291.674 238.242 296.196 235.593 301.165C230.101 311.432 224.103 321.365 216.582 330.472C216.073 331.105 215.598 331.76 215.126 332.417C214.827 332.417 214.528 332.417 214.22 332.417C214.066 332.768 214.066 332.768 213.909 333.125C213.314 334.097 212.643 334.784 211.773 335.55C211.233 336.033 210.707 336.531 210.189 337.036C202.073 344.876 191.275 349.912 179.455 350.228C167.797 350.106 157.42 344.873 148.481 338.35C147.24 337.434 147.24 337.434 145.879 336.614C145.879 336.337 145.879 336.06 145.879 335.775C145.609 335.661 145.34 335.547 145.062 335.43C144.08 334.941 143.435 334.456 142.649 333.73C142.26 333.372 142.26 333.372 141.863 333.007C141.592 332.752 141.321 332.496 141.041 332.233C140.761 331.971 140.48 331.708 140.19 331.437C137.035 328.452 134.245 325.237 131.571 321.874C131.153 321.349 130.73 320.827 130.301 320.31C128.271 317.851 126.433 315.282 124.607 312.691C124.329 312.299 124.052 311.908 123.767 311.504C122.206 309.267 120.775 306.995 119.419 304.646C118.014 302.247 116.502 299.901 115 297.554C114.139 296.192 113.418 294.821 112.768 293.363C111.729 291.135 110.535 288.961 109.19 286.879C108.535 285.839 108.051 284.811 107.601 283.682C106.157 280.29 104.315 277.067 102.543 273.816C102.189 273.164 101.835 272.512 101.482 271.86C100.782 270.569 100.081 269.278 99.3791 267.988C98.5521 266.466 97.7301 264.942 96.9102 263.418C95.3253 260.47 93.7209 257.533 92.0764 254.614C91.7328 254.004 91.7328 254.004 91.3822 253.381C89.398 249.871 87.3363 246.405 85.2437 242.95C83.5953 240.224 82.0084 237.471 80.447 234.702C78.6635 231.541 76.8377 228.419 74.9096 225.331C73.3864 222.872 71.9452 220.371 70.4884 217.878C69.2337 215.736 67.9517 213.616 66.6179 211.515C64.6938 208.424 63.0836 205.205 61.4502 201.975C60.4589 200.017 59.4343 198.076 58.3863 196.144C58.239 195.871 58.0916 195.599 57.9397 195.318C57.3079 194.152 56.6701 192.99 56.0226 191.832C55.8225 191.472 55.6224 191.111 55.4162 190.74C55.2493 190.445 55.0825 190.15 54.9106 189.846C53.0027 185.794 52.6732 180.71 54.0301 176.458C55.4378 173.702 57.4248 171.187 59.8856 169.151C60.1843 169.151 60.483 169.151 60.7908 169.151C60.7908 168.874 60.7908 168.597 60.7908 168.312C69.795 160.568 82.8272 157.918 94.7265 158.131C99.4965 158.3 104.328 159.104 108.766 160.757C109.171 160.898 109.576 161.04 109.993 161.185C117.15 163.789 123.429 167.669 129.046 172.517C130.014 173.36 130.014 173.36 131.072 174.035C131.328 174.224 131.584 174.413 131.848 174.607C131.848 174.885 131.848 175.162 131.848 175.447C132.147 175.447 132.446 175.447 132.753 175.447C133.344 175.975 133.344 175.975 134.055 176.758C135.05 177.852 136.048 178.935 137.083 179.996C143.556 186.683 148.772 194.253 153.414 202.115C154.005 203.113 154.604 204.106 155.206 205.097C159.112 211.535 162.785 218.053 166.192 224.73C168.767 229.754 171.466 234.741 174.624 239.475C175.31 240.52 175.963 241.581 176.612 242.646C180.854 249.607 185.939 257.881 194.278 261.172C196.493 261.675 197.93 261.948 200.013 260.883C206.817 256.561 210.183 249.769 213.731 243.103C215.628 239.54 217.634 236.032 219.651 232.527C219.871 232.144 220.091 231.762 220.317 231.367C223.067 226.589 225.855 221.89 229.156 217.418C229.441 217.03 229.727 216.642 230.02 216.242C235.9 208.506 243.091 201.072 253.544 199.089C261.838 197.89 269.347 199.643 276.226 203.987C277.501 204.956 278.71 205.953 279.896 207.015C280.699 207.79 280.699 207.79 281.657 208.184C281.657 208.461 281.657 208.738 281.657 209.023C281.956 209.023 282.254 209.023 282.562 209.023C285.749 211.651 288.037 215.334 290.256 218.677C290.435 218.946 290.614 219.215 290.799 219.493C294.709 225.527 297.184 232.199 299.803 238.777C299.923 239.076 300.042 239.375 300.165 239.683C300.872 241.477 301.473 243.277 302.024 245.118C306.135 258.54 306.135 258.54 315.856 268.386C318.448 268.94 320.085 268.763 322.39 267.546C326.268 265.213 329.365 261.981 331.442 258.129C331.741 258.129 332.04 258.129 332.348 258.129C332.441 257.791 332.534 257.454 332.63 257.106C333.172 255.805 333.708 254.93 334.554 253.801C335.702 252.26 336.552 250.745 337.331 249.022C337.799 248.013 338.317 247.041 338.854 246.063C344.389 235.89 348.949 225.174 353.167 214.48C353.995 212.405 354.851 210.342 355.741 208.289C355.979 207.741 356.216 207.193 356.453 206.645C356.58 206.353 356.706 206.062 356.836 205.762C357.268 204.762 357.697 203.76 358.126 202.759C359.69 199.109 361.277 195.475 362.965 191.873C363.536 190.644 364.081 189.409 364.623 188.169C368.011 180.643 372.058 173.356 376.582 166.363C376.758 166.09 376.934 165.817 377.115 165.537C377.277 165.344 377.44 165.152 377.607 164.954C377.906 164.954 378.204 164.954 378.512 164.954C378.643 164.634 378.774 164.314 378.908 163.984C379.417 162.856 379.417 162.856 380.323 161.597C380.621 161.597 380.92 161.597 381.228 161.597C381.337 161.291 381.446 160.986 381.558 160.672C383.875 155.939 390.75 152.044 395.755 150.12C401.647 148.235 409.294 148.76 414.72 151.524Z" stroke="white" stroke-width="8" mask="url(#path-2-outside-1_2051_2876)"/>
<path d="M408.836 167.892C409.256 168.178 409.676 168.463 410.109 168.758C413.343 171.413 415.328 175.697 415.71 179.691C415.855 184.548 413.985 188.09 411.212 192.13C406.608 196.4 401.88 197.398 395.601 197.403C392.864 197.36 390.77 197.049 388.469 195.592C388.123 195.374 387.776 195.155 387.419 194.93C383.435 192.223 380.638 189.212 379.418 184.68C379.25 183.305 379.2 181.945 379.191 180.562C379.188 180.226 379.186 179.89 379.183 179.544C379.253 176.49 380.369 174.34 381.992 171.695C382.189 171.371 382.387 171.047 382.591 170.713C382.739 170.475 382.886 170.236 383.038 169.99C383.337 169.99 383.636 169.99 383.943 169.99C384.048 169.745 384.154 169.499 384.262 169.246C385.601 167.114 388.43 165.751 390.817 164.797C397.673 163.384 403.177 163.956 408.836 167.892Z" fill="white"/>
<path d="M84.7773 220.355C86.702 221.9 87.814 223.823 89.077 225.838C91.1696 229.129 93.3201 232.377 95.5556 235.587C96.9513 237.609 98.2216 239.672 99.4482 241.786C100.201 243.081 100.969 244.368 101.741 245.654C102.013 246.108 102.285 246.561 102.565 247.029C102.847 247.498 103.129 247.966 103.419 248.45C105.504 251.924 107.581 255.403 109.642 258.89C110.967 261.132 112.308 263.364 113.687 265.579C115.349 268.252 116.921 270.967 118.496 273.684C120.567 277.253 122.716 280.729 125.058 284.151C125.513 284.849 125.966 285.548 126.416 286.249C127.179 287.438 127.954 288.619 128.746 289.791C128.913 290.038 129.08 290.286 129.252 290.542C129.732 291.254 130.215 291.965 130.698 292.676C131.395 293.804 131.395 293.804 131.395 294.644C131.693 294.644 131.992 294.644 132.3 294.644C132.889 295.445 133.438 296.273 133.969 297.109C136.733 301.392 139.909 305.359 143.162 309.333C143.422 309.657 143.682 309.981 143.951 310.315C145.728 312.496 147.665 314.5 149.7 316.475C151.309 318.058 151.309 318.058 151.309 318.986C151.757 319.125 152.205 319.263 152.667 319.406C153.333 320.049 153.333 320.049 154.053 320.875C159.222 326.505 167.2 332.517 175.432 333.186C176.037 333.221 176.037 333.221 176.654 333.257C177.364 333.298 177.364 333.298 178.088 333.34C187.132 333.615 194.676 330.056 201.547 324.862C201.887 324.611 202.227 324.36 202.577 324.102C204.849 322.355 206.606 320.358 208.336 318.147C208.485 318.424 208.634 318.701 208.788 318.986C205.192 323.911 201.809 328.441 196.568 331.997C196.204 332.257 195.84 332.517 195.465 332.784C188.635 337.494 180.74 338.617 172.423 337.708C163.453 336.11 156.349 330.585 149.951 324.862C149.676 324.616 149.401 324.37 149.117 324.117C145.532 320.893 142.139 317.626 139.089 313.95C138.728 313.524 138.368 313.098 137.996 312.66C133.491 307.318 129.443 301.821 125.676 296.008C124.879 294.789 124.059 293.583 123.237 292.378C121.309 289.549 119.494 286.696 117.817 283.731C117.514 283.201 117.21 282.672 116.906 282.142C116.214 280.934 115.524 279.725 114.836 278.514C114.113 277.242 113.384 275.972 112.651 274.704C110.089 270.257 107.706 265.746 105.379 261.19C104.494 259.459 103.587 257.741 102.655 256.031C98.9302 249.171 95.4525 242.195 91.9057 235.255C91.6465 234.748 91.6465 234.748 91.3821 234.231C90.3918 232.293 89.4033 230.355 88.4168 228.415C87.944 227.488 87.4688 226.561 86.9935 225.635C86.7002 225.06 86.407 224.485 86.1139 223.91C85.978 223.646 85.8422 223.383 85.7022 223.112C84.7773 221.29 84.7773 221.29 84.7773 220.355Z" fill="white"/>
<path d="M433.357 174.185C444.228 175.788 441.04 175.145 442.96 175.466C443.971 175.748 449.939 176.587 450.964 176.778C450.795 177.458 449.212 181.188 449.043 181.868C448.937 182.296 448.191 184.308 448.082 184.749C447.875 185.577 447.662 186.487 447.442 187.31C445.995 192.805 446.267 191.511 446.162 197.234C446.147 197.905 446.177 200.404 446.162 201.075C446.125 202.698 445.872 205.215 445.842 206.838C443.564 206.448 441.974 206.055 439.697 205.66C438.814 205.507 437.931 205.355 437.048 205.204C435.646 204.964 434.244 204.72 432.842 204.476C432.397 204.4 431.951 204.325 431.492 204.247C430.859 204.136 430.859 204.136 430.213 204.022C429.84 203.958 429.467 203.894 429.082 203.827C427.901 203.551 425.206 203.803 424.073 203.316C424.343 201.848 425.195 200.862 425.674 199.475C426.336 197.554 427.198 195.13 427.274 194.993C430.613 196.971 436.754 200.893 440.397 200.832C440.877 200.828 441.357 200.823 441.851 200.819C443.024 200.808 443.388 200.455 444.561 200.435C443.525 199.184 443.165 199.205 441.797 198.704C441.52 198.601 441.244 198.499 440.959 198.393C436.707 196.853 431.665 195.742 427.274 194.993C427.641 192.742 428.785 190.818 429.463 188.675C430.195 186.325 430.786 183.948 431.346 181.532C431.429 181.179 431.511 180.826 431.597 180.462C432.073 178.374 432.842 176.106 433.357 174.185Z" fill="#DF345F"/>
<path d="M427.274 194.993C430.613 196.971 436.754 200.893 440.397 200.832L441.851 200.819C443.024 200.808 443.388 200.455 444.561 200.435C443.525 199.184 443.165 199.205 441.797 198.704L440.959 198.393C436.707 196.853 431.665 195.742 427.274 194.993Z" fill="white"/>
<path d="M389.465 170.259C394.505 167.063 399.748 167.557 404.699 169.856L404.854 169.927L404.993 170.023C407.242 171.575 409.752 173.941 410.734 176.918L410.797 177.107L410.821 177.304C411.337 181.549 410.913 185.434 407.868 189.17L407.801 189.252L407.726 189.328C404.824 192.203 401.452 193.492 397.375 193.657L397.299 193.66L397.222 193.657C394.102 193.544 391.309 192.785 388.676 190.933L388.158 190.569L387.968 190.039H387.604L387.011 189.408C385.656 187.966 384.708 186.466 384.146 184.793C383.586 183.129 383.447 181.406 383.557 179.571L383.562 179.479L383.576 179.387C383.879 177.411 384.495 175.744 385.495 174.244C386.481 172.764 387.782 171.536 389.321 170.359L389.391 170.306L389.465 170.259Z" fill="#EA3359" stroke="#EA3359" stroke-width="4"/>
<path d="M365.387 283.312C365.839 284.151 365.839 284.151 365.608 285.051C365.408 285.605 365.408 285.605 365.203 286.171C365.054 286.584 364.906 286.997 364.753 287.423C364.588 287.866 364.424 288.31 364.255 288.768C364.089 289.222 363.923 289.677 363.751 290.145C359.864 300.673 355.209 311.148 348.188 320.246C348.01 320.477 347.832 320.709 347.649 320.947C345.272 324.026 345.272 324.026 344.115 325.282C343.816 325.282 343.517 325.282 343.209 325.282C343.112 325.508 343.015 325.734 342.914 325.967C342.086 327.317 340.968 328.343 339.787 329.427C339.543 329.651 339.298 329.875 339.047 330.106C333.318 335.259 326.035 338.091 318.054 338.052C313.604 337.919 309.48 336.575 305.644 334.516C305.306 334.337 304.968 334.158 304.62 333.973C302.731 332.93 302.731 332.93 302.023 332.417C302.023 332.14 302.023 331.863 302.023 331.578C301.426 331.301 300.828 331.024 300.213 330.738C300.213 330.323 300.213 329.907 300.213 329.479C300.704 329.682 301.195 329.884 301.702 330.092C302.356 330.36 303.01 330.628 303.664 330.896C303.987 331.029 304.309 331.162 304.642 331.299C311.831 334.235 317.693 334.054 325.106 331.997C326.161 331.715 327.217 331.437 328.274 331.158C328.274 330.881 328.274 330.604 328.274 330.319C328.97 329.974 328.97 329.974 329.681 329.622C331.409 328.704 332.826 327.621 334.271 326.358C334.524 326.137 334.778 325.916 335.039 325.688C340.061 321.231 343.819 316.206 347.506 310.759C348.108 309.871 348.716 308.987 349.328 308.105C352.923 302.892 356.188 297.494 359.503 292.125C360.453 290.586 361.406 289.047 362.36 287.509C362.665 287.012 362.665 287.012 362.977 286.506C363.163 286.205 363.35 285.904 363.543 285.594C363.783 285.203 363.783 285.203 364.029 284.805C364.481 284.151 364.481 284.151 365.387 283.312Z" fill="white"/>
<path d="M258.518 208.84C259.178 208.845 259.178 208.845 259.852 208.851C263.059 208.921 265.678 209.277 268.532 210.702C268.959 210.892 269.386 211.081 269.826 211.276C280.069 216.223 285.66 226.433 289.066 236.242C289.5 237.617 289.817 238.989 290.115 240.397C290.228 240.923 290.342 241.448 290.459 241.99C290.669 243.211 290.762 244.308 290.709 245.538C289.41 244.078 288.563 242.458 287.682 240.764C282.277 230.588 275.757 219.232 263.564 215.175C263.261 215.084 262.959 214.993 262.648 214.9C262.2 214.761 261.752 214.623 261.29 214.48C253.789 213.948 247.802 215.775 242.026 220.33C240.923 221.195 240.923 221.195 240.018 221.195C240.018 221.472 240.018 221.749 240.018 222.035C239.258 222.715 239.258 222.715 238.264 223.477C237.093 224.378 236.347 225.043 235.492 226.232C235.193 226.232 234.895 226.232 234.587 226.232C235.881 220.968 240.536 215.428 245.348 212.44C249.718 209.967 253.392 208.788 258.518 208.84Z" fill="white"/>
<path d="M111.102 172.922C112.561 173.67 114.06 174.343 115.555 175.027C115.555 175.304 115.555 175.581 115.555 175.867C115.884 175.97 116.213 176.073 116.552 176.18C118.857 177.138 120.531 178.883 122.344 180.483C122.874 180.949 122.874 180.949 123.415 181.424C128.714 186.202 132.671 191.79 136.204 197.77C136.365 198.037 136.526 198.304 136.691 198.579C137.075 199.245 137.408 199.936 137.732 200.629C137.582 201.045 137.433 201.46 137.279 201.888C137.01 201.548 136.741 201.208 136.464 200.857C133.814 197.556 130.978 194.663 127.775 191.815C126.651 190.787 125.547 189.752 124.472 188.679C116.139 180.521 104.248 174.15 91.9542 173.598C83.9419 173.426 76.2887 174.159 69.2732 178.055C68.4847 178.385 68.4847 178.385 67.127 177.965C71.6286 173.907 76.597 171.439 82.5152 169.571C82.9084 169.436 83.3016 169.302 83.7068 169.163C92.6777 166.428 103.136 168.744 111.102 172.922Z" fill="white"/>
<defs>
<linearGradient id="paint0_linear_2051_2876" x1="-3.93093" y1="199.795" x2="560.125" y2="410.436" gradientUnits="userSpaceOnUse">
<stop offset="0.471054" stop-color="#0DA5BF"/>
<stop offset="0.471154" stop-color="#EA3359"/>
</linearGradient>
</defs>
</svg>
