<?xml version="1.0" encoding="UTF-8" standalone="no"?>
<svg width="200" height="100" viewBox="0 0 200 100" xmlns="http://www.w3.org/2000/svg">
  <g transform="translate(20, 20)">
    <!-- Wireframe Construction -->
    <path d="M30 0 L55 15 L55 45 L30 60 L5 45 L5 15 Z" fill="none" stroke="#444" stroke-width="1" stroke-dasharray="2,2"/>
    <path d="M15 15 L25 21 L25 48 L15 42 Z" fill="none" stroke="#fff" stroke-width="2"/>
    <path d="M30 33 L45 20 L50 23 L35 36 Z" fill="none" stroke="#fff" stroke-width="2"/>
    <path d="M32 38 L48 50 L43 53 L28 41 Z" fill="none" stroke="#fff" stroke-width="2"/>
    <path d="M28 25 L38 31 L38 40 L28 34 Z" fill="none" stroke="#fff" stroke-width="2"/>

    <!-- Tech nodes -->
    <circle cx="25" cy="21" r="2" fill="#fff"/>
    <circle cx="38" cy="31" r="2" fill="#fff"/>
    <circle cx="38" cy="40" r="2" fill="#fff"/>
  </g>

  <g transform="translate(85, 55)">
    <text x="0" y="0" font-family="Orbitron, system-ui, sans-serif" font-weight="700" font-size="28" fill="#fff">
      Wigrix
    </text>
  </g>
</svg>
