<svg width="146" height="51" viewBox="0 0 146 51" fill="none" xmlns="http://www.w3.org/2000/svg">
<path d="M52.176 36V15.84H55.844V36H52.176ZM58.7757 36V15.84H62.4997V24.044H67.2317L74.1197 15.84H78.1517V16.904L70.5917 25.92L78.1797 34.936V36H74.1197L67.2317 27.796H62.4997V36H58.7757Z" fill="black"/>
<path d="M84.8122 36C84.1029 36 83.4589 35.8227 82.8802 35.468C82.3015 35.1133 81.8349 34.6467 81.4802 34.068C81.1255 33.4893 80.9482 32.8453 80.9482 32.136V14.412H84.6442V31.996C84.6442 32.0893 84.6722 32.1733 84.7282 32.248C84.8029 32.304 84.8869 32.332 84.9802 32.332H88.0882V36H84.8122ZM94.0817 36C93.3724 36 92.7191 35.8227 92.1217 35.468C91.5431 35.1133 91.0764 34.6467 90.7217 34.068C90.3857 33.4893 90.2177 32.8453 90.2177 32.136V26.032H103.042V23.764C103.042 23.6707 103.004 23.596 102.93 23.54C102.874 23.4653 102.799 23.428 102.706 23.428H90.2177V19.76H102.846C103.555 19.76 104.199 19.9373 104.778 20.292C105.375 20.6467 105.842 21.1133 106.178 21.692C106.532 22.2707 106.71 22.9147 106.71 23.624V36H94.0817ZM94.2217 32.332H103.042V29.336H93.8857V31.996C93.8857 32.0893 93.9137 32.1733 93.9697 32.248C94.0444 32.304 94.1284 32.332 94.2217 32.332ZM108.922 36V14.44H112.59V19.76H121.55C122.259 19.76 122.903 19.9373 123.482 20.292C124.079 20.6467 124.546 21.1133 124.882 21.692C125.237 22.2707 125.414 22.9147 125.414 23.624V32.136C125.414 32.8453 125.237 33.4893 124.882 34.068C124.546 34.6467 124.079 35.1133 123.482 35.468C122.903 35.8227 122.259 36 121.55 36H108.922ZM112.926 32.332H121.41C121.503 32.332 121.578 32.304 121.634 32.248C121.709 32.1733 121.746 32.0893 121.746 31.996V23.764C121.746 23.6707 121.709 23.596 121.634 23.54C121.578 23.4653 121.503 23.428 121.41 23.428H112.926C112.833 23.428 112.749 23.4653 112.674 23.54C112.618 23.596 112.59 23.6707 112.59 23.764V31.996C112.59 32.0893 112.618 32.1733 112.674 32.248C112.749 32.304 112.833 32.332 112.926 32.332ZM131.294 36C130.585 36 129.941 35.8227 129.362 35.468C128.783 35.1133 128.317 34.6467 127.962 34.068C127.607 33.4893 127.43 32.8453 127.43 32.136V31.52H131.098V31.996C131.098 32.0893 131.126 32.1733 131.182 32.248C131.257 32.304 131.341 32.332 131.434 32.332H139.918C140.011 32.332 140.086 32.304 140.142 32.248C140.217 32.1733 140.254 32.0893 140.254 31.996V30.064C140.254 29.9707 140.217 29.896 140.142 29.84C140.086 29.7653 140.011 29.728 139.918 29.728H131.294C130.585 29.728 129.941 29.5507 129.362 29.196C128.783 28.8413 128.317 28.3747 127.962 27.796C127.607 27.2173 127.43 26.5733 127.43 25.864V23.624C127.43 22.9147 127.607 22.2707 127.962 21.692C128.317 21.1133 128.783 20.6467 129.362 20.292C129.941 19.9373 130.585 19.76 131.294 19.76H140.058C140.786 19.76 141.439 19.9373 142.018 20.292C142.597 20.6467 143.063 21.1133 143.418 21.692C143.773 22.2707 143.95 22.9147 143.95 23.624V24.24H140.254V23.764C140.254 23.6707 140.217 23.596 140.142 23.54C140.086 23.4653 140.011 23.428 139.918 23.428H131.434C131.341 23.428 131.257 23.4653 131.182 23.54C131.126 23.596 131.098 23.6707 131.098 23.764V25.696C131.098 25.7893 131.126 25.8733 131.182 25.948C131.257 26.004 131.341 26.032 131.434 26.032H140.058C140.786 26.032 141.439 26.2093 142.018 26.564C142.597 26.9187 143.063 27.3853 143.418 27.964C143.773 28.5427 143.95 29.1867 143.95 29.896V32.136C143.95 32.8453 143.773 33.4893 143.418 34.068C143.063 34.6467 142.597 35.1133 142.018 35.468C141.439 35.8227 140.786 36 140.058 36H131.294Z" fill="url(#paint0_linear_2023_185)"/>
<path opacity="0.31" d="M21.25 0L42.5 12.75V38.25L21.25 51L0 38.25V12.75L21.25 0Z" fill="url(#paint1_linear_2023_185)"/>
<path d="M8.22949 13L17 18V42.5L8.5 37L8.22949 13Z" fill="url(#paint2_linear_2023_185)"/>
<path d="M8.22949 13L17 18V42.5L8.5 37L8.22949 13Z" fill="black"/>
<g opacity="0.5">
<path d="M8.2168 13.0333L17 18L25.2168 13.0333L16.7168 7.93335L8.2168 13.0333Z" fill="url(#paint3_linear_2023_185)" fill-opacity="0.2"/>
<path d="M8.2168 13.0333L17 18L25.2168 13.0333L16.7168 7.93335L8.2168 13.0333Z" fill="url(#paint4_linear_2023_185)"/>
</g>
<path d="M21.25 28.05L34 17L38.25 19.55L25.5 30.6L21.25 28.05Z" fill="url(#paint5_linear_2023_185)"/>
<path d="M21.25 28.05L34 17L38.25 19.55L25.5 30.6L21.25 28.05Z" fill="black"/>
<path d="M22.9498 32.3L36.5498 42.5L32.2998 45.05L19.5498 34.85L22.9498 32.3Z" fill="url(#paint6_linear_2023_185)"/>
<path d="M22.9498 32.3L36.5498 42.5L32.2998 45.05L19.5498 34.85L22.9498 32.3Z" fill="black"/>
<path d="M19.5498 21.25L28.0498 26.35V34L19.5498 28.9V21.25Z" fill="#BC13FE"/>
<defs>
<linearGradient id="paint0_linear_2023_185" x1="98.5" y1="8" x2="98.5" y2="43" gradientUnits="userSpaceOnUse">
<stop stop-color="#00F3FF"/>
<stop offset="1" stop-color="#BC13FE"/>
</linearGradient>
<linearGradient id="paint1_linear_2023_185" x1="1" y1="4" x2="40.4652" y2="39.2647" gradientUnits="userSpaceOnUse">
<stop offset="0.00657649" stop-color="#00F3FF"/>
<stop offset="1" stop-color="#BC13FE"/>
</linearGradient>
<linearGradient id="paint2_linear_2023_185" x1="8" y1="13" x2="24.5148" y2="17.9553" gradientUnits="userSpaceOnUse">
<stop stop-color="#00F3FF"/>
<stop offset="1" stop-color="#BC13FE"/>
</linearGradient>
<linearGradient id="paint3_linear_2023_185" x1="16.7168" y1="7.93335" x2="16.7168" y2="18" gradientUnits="userSpaceOnUse">
<stop stop-opacity="0"/>
<stop offset="1"/>
</linearGradient>
<linearGradient id="paint4_linear_2023_185" x1="4.5" y1="14" x2="25" y2="13.5" gradientUnits="userSpaceOnUse">
<stop stop-color="#00F3FF"/>
<stop offset="1" stop-color="#BC13FE"/>
</linearGradient>
<linearGradient id="paint5_linear_2023_185" x1="22.95" y1="30.6" x2="38.25" y2="15.5833" gradientUnits="userSpaceOnUse">
<stop stop-color="#00F3FF"/>
<stop offset="1" stop-color="#BC13FE"/>
</linearGradient>
<linearGradient id="paint6_linear_2023_185" x1="19.5498" y1="32.3" x2="31.7136" y2="48.8812" gradientUnits="userSpaceOnUse">
<stop stop-color="#00F3FF"/>
<stop offset="1" stop-color="#BC13FE"/>
</linearGradient>
</defs>
</svg>
