<?xml version="1.0" encoding="UTF-8" standalone="no"?>
<svg width="200" height="200" viewBox="0 0 200 200" xmlns="http://www.w3.org/2000/svg">
  <defs>
    <linearGradient id="neonGradient" x1="0%" y1="0%" x2="100%" y2="100%">
      <stop offset="0%" style="stop-color:#00f3ff;stop-opacity:1" />
      <stop offset="100%" style="stop-color:#bc13fe;stop-opacity:1" />
    </linearGradient>
  </defs>

  <!-- Icon Group Centered -->
  <g transform="translate(70, 40) scale(1.2)">
    <path d="M30 0 L55 15 L55 45 L30 60 L5 45 L5 15 Z" fill="url(#neonGradient)" opacity="0.05"/>
    <path d="M15 15 L25 21 L25 48 L15 42 Z" fill="url(#neonGradient)" />
    <path d="M15 15 L25 21 L35 15 L25 9 Z" fill="#fff" opacity="0.3"/>
    <path d="M30 33 L45 20 L50 23 L35 36 Z" fill="url(#neonGradient)" />
    <path d="M32 38 L48 50 L43 53 L28 41 Z" fill="url(#neonGradient)" />
    <path d="M28 25 L38 31 L38 40 L28 34 Z" fill="#00f3ff" />
    <line x1="5" y1="20" x2="25" y2="30" stroke="#050505" stroke-width="1.5" />
    <line x1="5" y1="25" x2="25" y2="35" stroke="#050505" stroke-width="1.5" />
    <line x1="5" y1="30" x2="25" y2="40" stroke="#050505" stroke-width="1.5" />
  </g>

  <!-- Logotype -->
  <g transform="translate(100, 130)" text-anchor="middle">
    <text x="0" y="0" font-family="Orbitron, system-ui, sans-serif" font-weight="700" font-size="32" fill="#fff">
      IK<tspan fill="url(#neonGradient)">labs</tspan>
    </text>
  </g>
</svg>
