<svg width="136" height="40" viewBox="0 0 136 40" fill="none" xmlns="http://www.w3.org/2000/svg">
<path opacity="0.2" d="M16.6667 0L33.3333 10V30L16.6667 40L0 30V10L16.6667 0Z" fill="url(#paint0_linear_2023_211)"/>
<path fill-rule="evenodd" clip-rule="evenodd" d="M13.1105 14.2224L6.44385 10.2224V13.3335L13.1105 17.1825V14.2224ZM6.44385 14.6669V17.778L13.1105 21.627V18.5159L6.44385 14.6669ZM6.44385 22.2224V19.1113L13.1105 22.9603V26.0714L6.44385 22.2224ZM6.44385 23.5557V28.2224L13.1105 32.2224V27.4047L6.44385 23.5557Z" fill="url(#paint1_linear_2023_211)"/>
<path d="M13.1105 21.627L6.44385 17.778V19.1113L13.1105 22.9603V21.627Z" fill="url(#paint2_linear_2023_211)"/>
<path d="M13.1105 21.627L6.44385 17.778V19.1113L13.1105 22.9603V21.627Z" fill="black"/>
<path d="M13.1105 17.1825L6.44385 13.3335V14.6669L13.1105 18.5159V17.1825Z" fill="url(#paint3_linear_2023_211)"/>
<path d="M13.1105 17.1825L6.44385 13.3335V14.6669L13.1105 18.5159V17.1825Z" fill="black"/>
<path d="M13.1105 26.0714L6.44385 22.2224V23.5557L13.1105 27.4047V26.0714Z" fill="url(#paint4_linear_2023_211)"/>
<path d="M13.1105 26.0714L6.44385 22.2224V23.5557L13.1105 27.4047V26.0714Z" fill="black"/>
<path opacity="0.5" d="M6.44385 10.2224L13.1105 14.2224L19.7772 10.2224L13.1105 6.22241L6.44385 10.2224Z" fill="white"/>
<g filter="url(#filter0_f_2023_211)">
<path d="M16.2227 22.3613L26.556 13.3335L30.0004 15.4168L19.6671 24.4446L16.2227 22.3613Z" fill="url(#paint5_linear_2023_211)"/>
</g>
<path d="M16.6665 22.0002L26.6665 13.3335L29.9998 15.3335L19.9998 24.0002L16.6665 22.0002Z" fill="url(#paint6_linear_2023_211)"/>
<g filter="url(#filter1_f_2023_211)">
<path d="M18.0002 25.3333L28.6668 33.3333L25.3335 35.3333L15.3335 27.3333L18.0002 25.3333Z" fill="url(#paint7_linear_2023_211)"/>
</g>
<path d="M18.0002 25.3333L28.6668 33.3333L25.3335 35.3333L15.3335 27.3333L18.0002 25.3333Z" fill="url(#paint8_linear_2023_211)"/>
<path d="M15.3335 16.6667L22.0002 20.6667V26.6667L15.3335 22.6667V16.6667Z" fill="#00F3FF"/>
<path d="M42.176 30V9.84H45.844V30H42.176ZM48.7757 30V9.84H52.4997V18.044H57.2317L64.1197 9.84H68.1517V10.904L60.5917 19.92L68.1797 28.936V30H64.1197L57.2317 21.796H52.4997V30H48.7757Z" fill="white"/>
<path d="M74.8122 30C74.1029 30 73.4589 29.8227 72.8802 29.468C72.3015 29.1133 71.8349 28.6467 71.4802 28.068C71.1255 27.4893 70.9482 26.8453 70.9482 26.136V8.412H74.6442V25.996C74.6442 26.0893 74.6722 26.1733 74.7282 26.248C74.8029 26.304 74.8869 26.332 74.9802 26.332H78.0882V30H74.8122ZM84.0817 30C83.3724 30 82.7191 29.8227 82.1217 29.468C81.5431 29.1133 81.0764 28.6467 80.7217 28.068C80.3857 27.4893 80.2177 26.8453 80.2177 26.136V20.032H93.0417V17.764C93.0417 17.6707 93.0044 17.596 92.9297 17.54C92.8737 17.4653 92.7991 17.428 92.7057 17.428H80.2177V13.76H92.8457C93.5551 13.76 94.1991 13.9373 94.7777 14.292C95.3751 14.6467 95.8417 15.1133 96.1777 15.692C96.5324 16.2707 96.7097 16.9147 96.7097 17.624V30H84.0817ZM84.2217 26.332H93.0417V23.336H83.8857V25.996C83.8857 26.0893 83.9137 26.1733 83.9697 26.248C84.0444 26.304 84.1284 26.332 84.2217 26.332ZM98.9222 30V8.44H102.59V13.76H111.55C112.259 13.76 112.903 13.9373 113.482 14.292C114.079 14.6467 114.546 15.1133 114.882 15.692C115.237 16.2707 115.414 16.9147 115.414 17.624V26.136C115.414 26.8453 115.237 27.4893 114.882 28.068C114.546 28.6467 114.079 29.1133 113.482 29.468C112.903 29.8227 112.259 30 111.55 30H98.9222ZM102.926 26.332H111.41C111.503 26.332 111.578 26.304 111.634 26.248C111.709 26.1733 111.746 26.0893 111.746 25.996V17.764C111.746 17.6707 111.709 17.596 111.634 17.54C111.578 17.4653 111.503 17.428 111.41 17.428H102.926C102.833 17.428 102.749 17.4653 102.674 17.54C102.618 17.596 102.59 17.6707 102.59 17.764V25.996C102.59 26.0893 102.618 26.1733 102.674 26.248C102.749 26.304 102.833 26.332 102.926 26.332ZM121.294 30C120.585 30 119.941 29.8227 119.362 29.468C118.783 29.1133 118.317 28.6467 117.962 28.068C117.607 27.4893 117.43 26.8453 117.43 26.136V25.52H121.098V25.996C121.098 26.0893 121.126 26.1733 121.182 26.248C121.257 26.304 121.341 26.332 121.434 26.332H129.918C130.011 26.332 130.086 26.304 130.142 26.248C130.217 26.1733 130.254 26.0893 130.254 25.996V24.064C130.254 23.9707 130.217 23.896 130.142 23.84C130.086 23.7653 130.011 23.728 129.918 23.728H121.294C120.585 23.728 119.941 23.5507 119.362 23.196C118.783 22.8413 118.317 22.3747 117.962 21.796C117.607 21.2173 117.43 20.5733 117.43 19.864V17.624C117.43 16.9147 117.607 16.2707 117.962 15.692C118.317 15.1133 118.783 14.6467 119.362 14.292C119.941 13.9373 120.585 13.76 121.294 13.76H130.058C130.786 13.76 131.439 13.9373 132.018 14.292C132.597 14.6467 133.063 15.1133 133.418 15.692C133.773 16.2707 133.95 16.9147 133.95 17.624V18.24H130.254V17.764C130.254 17.6707 130.217 17.596 130.142 17.54C130.086 17.4653 130.011 17.428 129.918 17.428H121.434C121.341 17.428 121.257 17.4653 121.182 17.54C121.126 17.596 121.098 17.6707 121.098 17.764V19.696C121.098 19.7893 121.126 19.8733 121.182 19.948C121.257 20.004 121.341 20.032 121.434 20.032H130.058C130.786 20.032 131.439 20.2093 132.018 20.564C132.597 20.9187 133.063 21.3853 133.418 21.964C133.773 22.5427 133.95 23.1867 133.95 23.896V26.136C133.95 26.8453 133.773 27.4893 133.418 28.068C133.063 28.6467 132.597 29.1133 132.018 29.468C131.439 29.8227 130.786 30 130.058 30H121.294Z" fill="url(#paint9_linear_2023_211)"/>
<defs>
<filter id="filter0_f_2023_211" x="12.7227" y="9.8335" width="20.7778" height="18.1111" filterUnits="userSpaceOnUse" color-interpolation-filters="sRGB">
<feFlood flood-opacity="0" result="BackgroundImageFix"/>
<feBlend mode="normal" in="SourceGraphic" in2="BackgroundImageFix" result="shape"/>
<feGaussianBlur stdDeviation="1.75" result="effect1_foregroundBlur_2023_211"/>
</filter>
<filter id="filter1_f_2023_211" x="11.3335" y="21.3333" width="21.3335" height="18" filterUnits="userSpaceOnUse" color-interpolation-filters="sRGB">
<feFlood flood-opacity="0" result="BackgroundImageFix"/>
<feBlend mode="normal" in="SourceGraphic" in2="BackgroundImageFix" result="shape"/>
<feGaussianBlur stdDeviation="2" result="effect1_foregroundBlur_2023_211"/>
</filter>
<linearGradient id="paint0_linear_2023_211" x1="-7.55556" y1="-7.77778" x2="43.9252" y2="48.7841" gradientUnits="userSpaceOnUse">
<stop stop-color="#00F3FF"/>
<stop offset="1" stop-color="#BC13FE"/>
</linearGradient>
<linearGradient id="paint1_linear_2023_211" x1="6.44385" y1="10.2224" x2="19.374" y2="14.4023" gradientUnits="userSpaceOnUse">
<stop stop-color="#00F3FF"/>
<stop offset="1" stop-color="#BC13FE"/>
</linearGradient>
<linearGradient id="paint2_linear_2023_211" x1="6.44385" y1="10.2224" x2="18.5873" y2="14.0256" gradientUnits="userSpaceOnUse">
<stop stop-color="#00F3FF"/>
<stop offset="1" stop-color="#BC13FE"/>
</linearGradient>
<linearGradient id="paint3_linear_2023_211" x1="6.44385" y1="10.2224" x2="18.5873" y2="14.0256" gradientUnits="userSpaceOnUse">
<stop stop-color="#00F3FF"/>
<stop offset="1" stop-color="#BC13FE"/>
</linearGradient>
<linearGradient id="paint4_linear_2023_211" x1="6.44385" y1="10.2224" x2="18.5873" y2="14.0256" gradientUnits="userSpaceOnUse">
<stop stop-color="#00F3FF"/>
<stop offset="1" stop-color="#BC13FE"/>
</linearGradient>
<linearGradient id="paint5_linear_2023_211" x1="17.6004" y1="24.4446" x2="30.0982" y2="12.2765" gradientUnits="userSpaceOnUse">
<stop stop-color="#00F3FF"/>
<stop offset="1" stop-color="#BC13FE"/>
</linearGradient>
<linearGradient id="paint6_linear_2023_211" x1="17.9998" y1="24.0002" x2="29.9998" y2="12.2224" gradientUnits="userSpaceOnUse">
<stop stop-color="#00F3FF"/>
<stop offset="1" stop-color="#BC13FE"/>
</linearGradient>
<linearGradient id="paint7_linear_2023_211" x1="15.3335" y1="25.3332" x2="24.8738" y2="38.3381" gradientUnits="userSpaceOnUse">
<stop stop-color="#00F3FF"/>
<stop offset="1" stop-color="#BC13FE"/>
</linearGradient>
<linearGradient id="paint8_linear_2023_211" x1="15.3335" y1="25.3332" x2="24.8738" y2="38.3381" gradientUnits="userSpaceOnUse">
<stop stop-color="#00F3FF"/>
<stop offset="1" stop-color="#BC13FE"/>
</linearGradient>
<linearGradient id="paint9_linear_2023_211" x1="88.5" y1="2" x2="88.5" y2="37" gradientUnits="userSpaceOnUse">
<stop stop-color="#00F3FF"/>
<stop offset="1" stop-color="#BC13FE"/>
</linearGradient>
</defs>
</svg>
